<?xml version="1.0" encoding="UTF-8"?>
<svg version="1.1" xmlns="http://www.w3.org/2000/svg" width="270" height="148">
<path d="M0 0 C89.1 0 178.2 0 270 0 C270 48.84 270 97.68 270 148 C180.9 148 91.8 148 0 148 C0 99.16 0 50.32 0 0 Z " fill="#FDFEFE" transform="translate(0,0)"/>
<path d="M0 0 C3.46629835 1.48653506 5.69022036 3.45722351 8.328125 6.1328125 C9.12734375 6.93847656 9.9265625 7.74414062 10.75 8.57421875 C11.575 9.41597656 12.4 10.25773437 13.25 11.125 C14.09046875 11.97449219 14.9309375 12.82398437 15.796875 13.69921875 C17.86915683 15.79504923 19.93662393 17.89540713 22 20 C20.51346494 23.46629835 18.54277649 25.69022036 15.8671875 28.328125 C15.06152344 29.12734375 14.25585938 29.9265625 13.42578125 30.75 C12.58402344 31.575 11.74226563 32.4 10.875 33.25 C10.02550781 34.09046875 9.17601563 34.9309375 8.30078125 35.796875 C6.20495077 37.86915683 4.10459287 39.93662393 2 42 C-1.46629835 40.51346494 -3.69022036 38.54277649 -6.328125 35.8671875 C-7.12734375 35.06152344 -7.9265625 34.25585938 -8.75 33.42578125 C-9.9875 32.16314453 -9.9875 32.16314453 -11.25 30.875 C-12.09046875 30.02550781 -12.9309375 29.17601563 -13.796875 28.30078125 C-15.86915683 26.20495077 -17.93662393 24.10459287 -20 22 C-18.51346494 18.53370165 -16.54277649 16.30977964 -13.8671875 13.671875 C-12.65869141 12.47304687 -12.65869141 12.47304687 -11.42578125 11.25 C-10.58402344 10.425 -9.74226563 9.6 -8.875 8.75 C-8.02550781 7.90953125 -7.17601562 7.0690625 -6.30078125 6.203125 C-4.20495077 4.13084317 -2.10459287 2.06337607 0 0 Z " fill="#0299D9" transform="translate(51,53)"/>
<path d="M0 0 C5.57894737 3.15789474 5.57894737 3.15789474 7 6 C7.3689566 9.91093991 7.33226705 12.33546589 5.5625 15.875 C2.42151554 18.47971882 0.21166788 19.01904028 -3.80859375 19.27734375 C-6 19 -6 19 -9 16.6875 C-11.86454809 12.83826351 -12.47268691 10.82140646 -12 6 C-8.53469916 0.80204874 -6.2477744 -0.60074754 0 0 Z " fill="#1A9EDB" transform="translate(194,65)"/>
<path d="M0 0 C3.06093273 0.44224515 4.897663 0.5228466 8 -0.0625 C10.6875 -0.4375 10.6875 -0.4375 12.83984375 0.55859375 C15.1445058 3.05815322 15.10329524 4.83415897 15.0390625 8.15820312 C15.00554687 8.84849609 14.97203125 9.53878906 14.9375 10.25 C14.91945313 10.95189453 14.90140625 11.65378906 14.8828125 12.37695312 C14.83576213 14.10605436 14.76401873 15.83445205 14.6875 17.5625 C13.3675 17.5625 12.0475 17.5625 10.6875 17.5625 C10.3575 12.9425 10.0275 8.3225 9.6875 3.5625 C8.0375 3.5625 6.3875 3.5625 4.6875 3.5625 C4.3575 8.5125 4.0275 13.4625 3.6875 18.5625 C2.0375 18.5625 0.3875 18.5625 -1.3125 18.5625 C-1.6425 13.9425 -1.9725 9.3225 -2.3125 4.5625 C-3.6325 4.5625 -4.9525 4.5625 -6.3125 4.5625 C-7.59696919 7.13143838 -7.64227144 9.32826337 -7.875 12.1875 C-8.00068359 13.69183594 -8.00068359 13.69183594 -8.12890625 15.2265625 C-8.18949219 15.99742188 -8.25007813 16.76828125 -8.3125 17.5625 C-9.6325 17.5625 -10.9525 17.5625 -12.3125 17.5625 C-12.3125 11.9525 -12.3125 6.3425 -12.3125 0.5625 C-9.8375 1.0575 -9.8375 1.0575 -7.3125 1.5625 C-3.99354055 -0.65013963 -3.6728243 -0.61530908 0 0 Z " fill="#1B9EDB" transform="translate(97.3125,65.4375)"/>
<path d="M0 0 C2.4375 1.125 2.4375 1.125 4 3 C4.25 6.6875 4.25 6.6875 4 10 C0.04 10 -3.92 10 -8 10 C-7.67 10.99 -7.34 11.98 -7 13 C-4.03 13.33 -1.06 13.66 2 14 C1.67 15.32 1.34 16.64 1 18 C-6.76785714 18.66964286 -6.76785714 18.66964286 -10.5 16 C-13.30551395 12.63338326 -13.78932384 11.17318276 -13.46875 6.93359375 C-12.73623313 3.91196165 -11.19716904 2.13254642 -9 0 C-5.84876177 -1.57561912 -3.37430208 -0.69813146 0 0 Z " fill="#1D9FDB" transform="translate(236,66)"/>
<path d="M0 0 C2.4375 2.25 2.4375 2.25 4 5 C4 6.65 4 8.3 4 10 C0.04 10 -3.92 10 -8 10 C-7.67 10.99 -7.34 11.98 -7 13 C-4.03 13.33 -1.06 13.66 2 14 C1.67 15.32 1.34 16.64 1 18 C-6.23186925 18.49029622 -6.23186925 18.49029622 -9.9375 16.125 C-12.5910687 13.39102013 -12.95036258 12.52615669 -13.3125 8.6875 C-12.95124058 4.42463889 -11.98007946 2.98007946 -9 0 C-5.77839187 -1.61080407 -3.42436421 -0.82657067 0 0 Z " fill="#159CDA" transform="translate(148,66)"/>
<path d="M0 0 C1.65 0 3.3 0 5 0 C5.33 0.66 5.66 1.32 6 2 C6.66 1.34 7.32 0.68 8 0 C14.46153846 0.46153846 14.46153846 0.46153846 17 3 C17.14497985 5.58064129 17.18677545 8.04943884 17.125 10.625 C17.11597656 11.33140625 17.10695312 12.0378125 17.09765625 12.765625 C17.07407603 14.51056098 17.03820461 16.25532295 17 18 C15.68 18 14.36 18 13 18 C12.67 13.38 12.34 8.76 12 4 C10.02 4.66 8.04 5.32 6 6 C5.67 10.29 5.34 14.58 5 19 C3.35 19 1.7 19 0 19 C0 12.73 0 6.46 0 0 Z " fill="#30A5DD" transform="translate(203,65)"/>
<path d="M0 0 C0 2.64 0 5.28 0 8 C1.32 8 2.64 8 4 8 C4 9.32 4 10.64 4 12 C2.35 12 0.7 12 -1 12 C-0.67 15.3 -0.34 18.6 0 22 C1.32 22.33 2.64 22.66 4 23 C4 24.32 4 25.64 4 27 C0.625 26.6875 0.625 26.6875 -3 26 C-5.28062828 22.57905758 -5.21925007 21.31812778 -5.125 17.3125 C-5.10695312 16.31863281 -5.08890625 15.32476562 -5.0703125 14.30078125 C-5.04710937 13.54152344 -5.02390625 12.78226563 -5 12 C-5.99 12 -6.98 12 -8 12 C-8 11.01 -8 10.02 -8 9 C-7.01 9 -6.02 9 -5 9 C-5.0825 8.2575 -5.165 7.515 -5.25 6.75 C-5 4 -5 4 -3.0625 1.6875 C-1 0 -1 0 0 0 Z " fill="#23A0DC" transform="translate(176,57)"/>
<path d="M0 0 C0.33 0.99 0.66 1.98 1 3 C-0.98 3.33 -2.96 3.66 -5 4 C-5.33 4.99 -5.66 5.98 -6 7 C-4.2984375 7.4640625 -4.2984375 7.4640625 -2.5625 7.9375 C1 9 1 9 2 10 C2.04092937 12.33297433 2.04241723 14.66705225 2 17 C-1.63423209 19.32590854 -4.77088331 19.16265833 -9 19 C-9.33 17.68 -9.66 16.36 -10 15 C-7.36 15 -4.72 15 -2 15 C-2 14.01 -2 13.02 -2 12 C-2.94875 11.71125 -3.8975 11.4225 -4.875 11.125 C-8 10 -8 10 -10 8 C-10.375 5.5625 -10.375 5.5625 -10 3 C-7.00198322 -0.3439418 -4.3216814 -0.2946601 0 0 Z " fill="#159CDA" transform="translate(164,65)"/>
<path d="M0 0 C0 8.25 0 16.5 0 25 C-1.32 25 -2.64 25 -4 25 C-4.08701039 21.39598519 -4.14039388 17.79223988 -4.1875 14.1875 C-4.21263672 13.16333984 -4.23777344 12.13917969 -4.26367188 11.08398438 C-4.27333984 10.10107422 -4.28300781 9.11816406 -4.29296875 8.10546875 C-4.3086792 7.19949951 -4.32438965 6.29353027 -4.34057617 5.36010742 C-3.99243665 2.94758791 -2.92262078 0 0 0 Z " fill="#0194D8" transform="translate(131,58)"/>
<path d="M0 0 C2.5 0.25 2.5 0.25 4.5 2.25 C4.84490322 6.30261287 4.80163882 7.79754176 2.5 11.25 C0 11.5625 0 11.5625 -2.5 11.25 C-4.5 9.25 -4.5 9.25 -4.75 5.75 C-4.46177779 1.71488904 -4.15174939 0.41517494 0 0 Z " fill="#F3F9FB" transform="translate(191.5,68.75)"/>
<path d="M0 0 C1.32 0 2.64 0 4 0 C4 5.61 4 11.22 4 17 C2.68 17 1.36 17 0 17 C0 11.39 0 5.78 0 0 Z " fill="#0096D8" transform="translate(117,66)"/>
<path d="M0 0 C1.32 0.33 2.64 0.66 4 1 C4.9360342 4.79267192 4.98276252 7.93674565 4.5625 11.8125 C4.46066406 12.78832031 4.35882813 13.76414062 4.25390625 14.76953125 C4.12822266 15.87361328 4.12822266 15.87361328 4 17 C2.68 17 1.36 17 0 17 C0 11.39 0 5.78 0 0 Z " fill="#0095D8" transform="translate(85,66)"/>
<path d="M0 0 C0.99 0 1.98 0 3 0 C4.18681726 3.56045177 4.09689832 6.43808337 4.0625 10.1875 C4.05347656 11.45980469 4.04445312 12.73210937 4.03515625 14.04296875 C4.02355469 15.01878906 4.01195312 15.99460937 4 17 C2.68 17 1.36 17 0 17 C0 11.39 0 5.78 0 0 Z " fill="#0096D8" transform="translate(204,66)"/>
<path d="M0 0 C1.65 0 3.3 0 5 0 C5.66 1.65 6.32 3.3 7 5 C4.03 5 1.06 5 -2 5 C-1.34 3.35 -0.68 1.7 0 0 Z " fill="#C2E1F2" transform="translate(141,68)"/>
<path d="M0 0 C1.98 0 3.96 0 6 0 C6.33 1.32 6.66 2.64 7 4 C4.36 4 1.72 4 -1 4 C-0.67 2.68 -0.34 1.36 0 0 Z " fill="#DBEDF7" transform="translate(229,69)"/>
<path d="M0 0 C0.66 0 1.32 0 2 0 C2 1.65 2 3.3 2 5 C0.35 5 -1.3 5 -3 5 C-3.33 5.66 -3.66 6.32 -4 7 C-4.66 7 -5.32 7 -6 7 C-5.67 5.68 -5.34 4.36 -5 3 C-3.02 3 -1.04 3 1 3 C0.67 2.01 0.34 1.02 0 0 Z " fill="#B3DAEF" transform="translate(164,65)"/>
</svg>
