<?xml version="1.0" encoding="UTF-8"?>
<svg xmlns="http://www.w3.org/2000/svg" xmlns:xlink="http://www.w3.org/1999/xlink" version="1.1" x="0px" y="0px" viewBox="0 0 190 40" style="enable-background:new 0 0 190 40;" xml:space="preserve">
<style type="text/css">
	.st0{display:none;}
	.st1{display:inline;fill:#A01022;}
	.st2{display:inline;fill:none;stroke:#000000;stroke-width:0.25;stroke-miterlimit:10;}
	.st3{display:inline;}
	.st4{fill:#4150FF;}
	.st5{display:inline;fill:#98D4E7;}
	.st6{fill:#A01022;}
</style>
<g id="Ebene_2" class="st0">
	<path class="st1" d="M62.1-383.1c3.3-2.4,11.7-3.2,17.4-2.3c3.9,0.6,26,5.2,52.2,8.9c2.8,0.4,10.1,2.9,16.1,5.9   c3.6,1.8,7.7,5.3,9.1,8.9c3,8,4.2,25.2,5.9,31c1.4,5,7.6,11.2,13.5,13.1c4.8,1.6,10.6,3.1,14.9,3.2c9.2,0.4,48.4,0.6,47.9,0.6v49.2   c0,0-37.1-0.7-51.7-1.9c-5.1-0.4-31-3.3-44.2-7.8c-13-4.5-34.1-11.8-42.8-16.4c-5.2-2.8-25.2-15-32.3-20.5   c-2.4-1.9-7.1-7-11.3-13.8c-2.8-4.6-5.8-11.8-5.9-18.5c-0.2-9.4,1.7-17.7,3.5-23.5C55.4-370.2,58.4-380.5,62.1-383.1z"></path>
	<path class="st2" d="M-1598.1,22.6c1.7-1.2,6.1-1.7,9.1-1.2c2,0.3,13.6,2.7,27.2,4.6c1.5,0.2,5.2,1.5,8.4,3.1   c1.9,0.9,4,2.8,4.7,4.6c1.6,4.2,2.2,13.1,3.1,16.2c0.7,2.6,4,5.8,7,6.8c2.5,0.8,5.5,1.6,7.8,1.7c4.8,0.2,25.3,0.3,25,0.3v25.7   c0,0-19.4-0.4-26.9-1c-2.6-0.2-16.2-1.7-23-4.1c-6.8-2.3-17.8-6.1-22.3-8.6c-2.7-1.5-13.2-7.8-16.9-10.7c-1.3-1-3.7-3.6-5.9-7.2   c-1.5-2.4-3-6.2-3.1-9.7c-0.1-4.9,0.9-9.3,1.8-12.3C-1601.6,29.4-1600,24-1598.1,22.6z"></path>
	<g class="st3">
		<path class="st4" d="M-1395.7,153.2c0.9,1.4,1.3,3.3,1.3,5.7c0,1.5-0.2,2.9-0.7,4.1s-1.1,2.1-2,2.8s-1.9,1-3.1,1    c-1.6,0-2.8-0.5-3.7-1.6v6.9l-3.6,0.4v-20.9h3.1l0.2,1.8c0.6-0.7,1.2-1.3,2-1.7c0.7-0.4,1.5-0.6,2.4-0.6    C-1397.9,151.1-1396.5,151.8-1395.7,153.2z M-1398.1,158.9c0-1.8-0.2-3.1-0.7-3.9s-1.2-1.2-2.1-1.2c-0.6,0-1.2,0.2-1.7,0.5    c-0.5,0.4-1,0.9-1.3,1.5v6.7c0.7,1,1.6,1.5,2.7,1.5C-1399.1,164-1398.1,162.3-1398.1,158.9z"></path>
		<path class="st4" d="M-1379,160.1h-9.3c0.1,1.4,0.5,2.5,1.1,3.1s1.5,0.9,2.5,0.9c0.7,0,1.3-0.1,1.8-0.3c0.6-0.2,1.2-0.5,1.8-1    l1.5,2c-1.6,1.3-3.5,2-5.5,2c-2.3,0-4-0.7-5.2-2.1c-1.2-1.4-1.8-3.3-1.8-5.7c0-1.5,0.3-2.9,0.8-4.1s1.3-2.1,2.3-2.8s2.2-1,3.5-1    c2.1,0,3.7,0.7,4.8,2c1.1,1.3,1.7,3.1,1.7,5.5C-1378.9,158.8-1378.9,159.3-1379,160.1z M-1382.5,157.6c0-2.6-1-3.9-2.9-3.9    c-0.9,0-1.6,0.3-2.1,1c-0.5,0.6-0.8,1.7-0.9,3.1h5.8V157.6z"></path>
		<path class="st4" d="M-1364.8,153.2c1.2,1.4,1.8,3.3,1.8,5.7c0,1.5-0.3,2.9-0.8,4.1c-0.6,1.2-1.4,2.1-2.4,2.8c-1,0.7-2.3,1-3.7,1    c-2.2,0-3.9-0.7-5.1-2.1c-1.2-1.4-1.8-3.3-1.8-5.8c0-1.5,0.3-2.9,0.8-4.1s1.4-2.1,2.4-2.7s2.3-1,3.7-1    C-1367.7,151.1-1366,151.8-1364.8,153.2z M-1373.1,158.9c0,1.8,0.3,3,0.8,3.9c0.5,0.8,1.3,1.2,2.4,1.2c1.1,0,1.9-0.4,2.4-1.3    c0.5-0.8,0.8-2.1,0.8-3.9s-0.3-3-0.8-3.8c-0.5-0.8-1.3-1.2-2.4-1.2C-1372.1,153.8-1373.1,155.5-1373.1,158.9z"></path>
		<path class="st4" d="M-1348.6,153.2c0.9,1.4,1.3,3.3,1.3,5.7c0,1.5-0.2,2.9-0.7,4.1s-1.1,2.1-2,2.8s-1.9,1-3.1,1    c-1.6,0-2.8-0.5-3.7-1.6v6.9l-3.6,0.4v-20.9h3.1l0.2,1.8c0.6-0.7,1.2-1.3,2-1.7c0.7-0.4,1.5-0.6,2.4-0.6    C-1350.9,151.1-1349.5,151.8-1348.6,153.2z M-1351,158.9c0-1.8-0.2-3.1-0.7-3.9s-1.2-1.2-2.1-1.2c-0.6,0-1.2,0.2-1.7,0.5    c-0.5,0.4-1,0.9-1.3,1.5v6.7c0.7,1,1.6,1.5,2.7,1.5C-1352.1,164-1351,162.3-1351,158.9z"></path>
		<path class="st4" d="M-1343.6,165.8c-0.6-0.7-1-1.6-1-2.8v-17.4l3.6-0.4v17.6c0,0.7,0.3,1,0.8,1c0.3,0,0.6,0,0.8-0.1l0.8,2.5    c-0.7,0.3-1.5,0.5-2.4,0.5C-1342.1,166.8-1343,166.4-1343.6,165.8z"></path>
		<path class="st4" d="M-1324.3,160.1h-9.3c0.1,1.4,0.5,2.5,1.1,3.1s1.5,0.9,2.5,0.9c0.7,0,1.3-0.1,1.8-0.3c0.6-0.2,1.2-0.5,1.8-1    l1.5,2c-1.6,1.3-3.5,2-5.5,2c-2.3,0-4-0.7-5.2-2.1c-1.2-1.4-1.8-3.3-1.8-5.7c0-1.5,0.3-2.9,0.8-4.1s1.3-2.1,2.3-2.8s2.2-1,3.5-1    c2.1,0,3.7,0.7,4.8,2c1.1,1.3,1.7,3.1,1.7,5.5C-1324.3,158.8-1324.3,159.3-1324.3,160.1z M-1327.8,157.6c0-2.6-1-3.9-2.9-3.9    c-0.9,0-1.6,0.3-2.1,1c-0.5,0.6-0.8,1.7-0.9,3.1h5.8V157.6z"></path>
		<path class="st4" d="M-1316.3,148.4c-0.3,0.3-0.5,0.8-0.5,1.6v1.6h3.6l-0.4,2.6h-3.2v12.2h-3.6v-12.2h-2.4v-2.6h2.4v-1.6    c0-1.4,0.5-2.5,1.4-3.4c0.9-0.9,2.2-1.3,3.9-1.3c1.3,0,2.6,0.3,3.8,0.9l-1,2.4c-0.8-0.4-1.6-0.6-2.4-0.6    C-1315.5,147.9-1316,148.1-1316.3,148.4z"></path>
		<path class="st4" d="M-1300.5,153.2c1.2,1.4,1.8,3.3,1.8,5.7c0,1.5-0.3,2.9-0.8,4.1c-0.6,1.2-1.4,2.1-2.4,2.8c-1,0.7-2.3,1-3.7,1    c-2.2,0-3.9-0.7-5.1-2.1c-1.2-1.4-1.8-3.3-1.8-5.8c0-1.5,0.3-2.9,0.8-4.1s1.4-2.1,2.4-2.7s2.3-1,3.7-1    C-1303.4,151.1-1301.7,151.8-1300.5,153.2z M-1308.8,158.9c0,1.8,0.3,3,0.8,3.9c0.5,0.8,1.3,1.2,2.4,1.2c1.1,0,1.9-0.4,2.4-1.3    c0.5-0.8,0.8-2.1,0.8-3.9s-0.3-3-0.8-3.8c-0.5-0.8-1.3-1.2-2.4-1.2C-1307.8,153.8-1308.8,155.5-1308.8,158.9z"></path>
		<path class="st4" d="M-1285.1,152.3c0.7,0.8,1.1,1.9,1.1,3.3v10.7h-3.6v-10.2c0-0.9-0.2-1.5-0.5-1.8s-0.8-0.5-1.4-0.5    c-0.6,0-1.2,0.2-1.7,0.6c-0.5,0.4-1,0.9-1.4,1.7v10.3h-3.6v-14.8h3.1l0.3,1.9c1.2-1.6,2.7-2.4,4.5-2.4    C-1286.9,151.1-1285.9,151.5-1285.1,152.3z"></path>
	</g>
	<path class="st5" d="M-1409.4,31c-0.5-1.6-1.7-6.6-4-8.4c-2.3-1.8-6.1-1.7-9.1-1.2c-5.7,1-13.6,2.6-27.2,4.6   c-4.5,0.7-6.6,1.9-8.4,2.9c-1.8,1-3.5,2.4-4.7,4.8c-2.1,4-1.9,13.2-3.1,16.2c-1.3,3.4-2.9,5.2-7,6.8c-2.6,1-4.6,1.5-7.8,1.7   c-4.8,0.3-25.1,0.3-25,0.3c0.1,0-20.2-0.1-25-0.3c-3.2-0.2-5.2-0.7-7.8-1.7c-4.2-1.7-5.7-3.5-7-6.8c-1.2-3-1-12.2-3.1-16.2   c-1.2-2.4-2.9-3.7-4.7-4.8c-1.8-1-3.9-2.3-8.4-2.9c-13.6-2-21.5-3.6-27.2-4.6c-3-0.5-6.8-0.6-9.1,1.2c-2.3,1.8-3.5,6.8-4,8.4   c-1,3-1.9,7.3-1.8,12.3c0.1,3.5,1.6,7.3,3.1,9.7c2.2,3.6,4.3,5.8,5.9,7.2c3.8,3.5,12.6,8.7,16.9,10.7c6.7,3.2,14.7,6.5,22.3,8.6   c9,2.5,15.8,3.6,23,4.1c7.5,0.5,26.8,1,26.9,1v0c0,0,0,0,0,0s0,0,0,0v0c0.2,0,19.4-0.5,26.9-1c7.3-0.5,14-1.6,23-4.1   c7.7-2.1,15.7-5.4,22.3-8.6c4.3-2,13.1-7.2,16.9-10.7c1.6-1.4,3.7-3.6,5.9-7.2c1.5-2.4,3-6.2,3.1-9.7   C-1407.5,38.4-1408.5,34.1-1409.4,31z"></path>
	<path class="st5" d="M-1598.1,148.4c1.7-1.2,6.1-1.7,9.1-1.2c2,0.3,13.6,2.7,27.2,4.6c1.5,0.2,5.2,1.5,8.4,3.1   c1.9,0.9,4,2.8,4.7,4.6c1.6,4.2,2.2,13.1,3.1,16.2c0.7,2.6,4,5.8,7,6.8c2.5,0.8,5.5,1.6,7.8,1.7c4.8,0.2,25.3,0.3,25,0.3v25.7   c0,0-19.4-0.4-26.9-1c-2.6-0.2-16.2-1.7-23-4.1c-6.8-2.3-17.8-6.1-22.3-8.6c-2.7-1.5-13.2-7.8-16.9-10.7c-1.3-1-3.7-3.6-5.9-7.2   c-1.5-2.4-3-6.2-3.1-9.7c-0.1-4.9,0.9-9.3,1.8-12.3C-1601.6,155.1-1600,149.7-1598.1,148.4z"></path>
	<path class="st1" d="M-1505.8,120.2c-17.5-0.2-33.3-2.9-36.4-6c-3.2-3.2-4.8-19.2-8-22.4c-2.8-2.8-44.4-12.4-48.4-9.2   c-4.4,2.8-9.6,28.8,0,40c8.8,9.6,46.4,25.6,88.8,25.6c1.3,0,2.7,0,4,0V120.2z"></path>
	<path class="st3" d="M-1721.6,20.2c0.7,0.1,3.9,5.2,3.9,5.8c0,0.6-1.4,2.4-1.4,3c0,1,3.8,5.8,7,7.4c0.8,0.4,2.6-1.4,3.4-1.4   c0.6,0,5.5,3.3,5.6,4.2c0.1,0.7-2.2,3.8-4.1,3.7c-3.1-0.2-7.8-2.9-12.1-7.1s-6.4-9.6-6.3-11.4   C-1725.4,22.2-1722.3,20.1-1721.6,20.2z"></path>
	<circle class="st5" cx="-1750.7" cy="31.5" r="20"></circle>
	<circle class="st3" cx="-1750.7" cy="31.5" r="16.5"></circle>
	<path class="st1" d="M-1604.1-95.8c-11,0-20,9-20,20c0,11,9,20,20,20c11,0,20-9,20-20C-1584.1-86.9-1593-95.8-1604.1-95.8z    M-1604.1-59c-9.3,0-16.9-7.5-16.9-16.8c0-9.3,7.5-16.9,16.9-16.9c9.3,0,16.8,7.5,16.8,16.9C-1587.2-66.5-1594.8-59-1604.1-59z"></path>
</g>
<g id="Gruppe_23">
	<g>
		<g>
			<path class="st6" d="M61.6,14.3c0.9,1.4,1.3,3.3,1.3,5.7c0,1.5-0.2,2.9-0.7,4.1s-1.1,2.1-2,2.8s-1.9,1-3.1,1     c-1.6,0-2.8-0.5-3.7-1.6v6.9l-3.6,0.4V12.7h3.1l0.2,1.8c0.6-0.7,1.2-1.3,2-1.7c0.7-0.4,1.5-0.6,2.4-0.6     C59.3,12.3,60.7,13,61.6,14.3z M59.2,20.1c0-1.8-0.2-3.1-0.7-3.9S57.3,15,56.4,15c-0.6,0-1.2,0.2-1.7,0.5c-0.5,0.4-1,0.9-1.3,1.5     v6.7c0.7,1,1.6,1.5,2.7,1.5C58.1,25.2,59.2,23.5,59.2,20.1z"></path>
			<path class="st6" d="M78.2,21.2h-9.3c0.1,1.4,0.5,2.5,1.1,3.1s1.5,0.9,2.5,0.9c0.7,0,1.3-0.1,1.8-0.3c0.6-0.2,1.2-0.5,1.8-1     l1.5,2c-1.6,1.3-3.5,2-5.5,2c-2.3,0-4-0.7-5.2-2.1c-1.2-1.4-1.8-3.3-1.8-5.7c0-1.5,0.3-2.9,0.8-4.1s1.3-2.1,2.3-2.8s2.2-1,3.5-1     c2.1,0,3.7,0.7,4.8,2c1.1,1.3,1.7,3.1,1.7,5.5C78.3,20,78.3,20.4,78.2,21.2z M74.8,18.7c0-2.6-1-3.9-2.9-3.9     c-0.9,0-1.6,0.3-2.1,1c-0.5,0.6-0.8,1.7-0.9,3.1h5.8V18.7z"></path>
			<path class="st6" d="M92.4,14.4c1.2,1.4,1.8,3.3,1.8,5.7c0,1.5-0.3,2.9-0.8,4.1c-0.6,1.2-1.4,2.1-2.4,2.8c-1,0.7-2.3,1-3.7,1     c-2.2,0-3.9-0.7-5.1-2.1c-1.2-1.4-1.8-3.3-1.8-5.8c0-1.5,0.3-2.9,0.8-4.1s1.4-2.1,2.4-2.7s2.3-1,3.7-1     C89.5,12.3,91.2,13,92.4,14.4z M84.1,20.1c0,1.8,0.3,3,0.8,3.9c0.5,0.8,1.3,1.2,2.4,1.2c1.1,0,1.9-0.4,2.4-1.3     c0.5-0.8,0.8-2.1,0.8-3.9s-0.3-3-0.8-3.8c-0.5-0.8-1.3-1.2-2.4-1.2C85.2,15,84.1,16.7,84.1,20.1z"></path>
			<path class="st6" d="M108.6,14.3c0.9,1.4,1.3,3.3,1.3,5.7c0,1.5-0.2,2.9-0.7,4.1s-1.1,2.1-2,2.8s-1.9,1-3.1,1     c-1.6,0-2.8-0.5-3.7-1.6v6.9l-3.6,0.4V12.7h3.1l0.2,1.8c0.6-0.7,1.2-1.3,2-1.7c0.7-0.4,1.5-0.6,2.4-0.6     C106.3,12.3,107.7,13,108.6,14.3z M106.2,20.1c0-1.8-0.2-3.1-0.7-3.9s-1.2-1.2-2.1-1.2c-0.6,0-1.2,0.2-1.7,0.5     c-0.5,0.4-1,0.9-1.3,1.5v6.7c0.7,1,1.6,1.5,2.7,1.5C105.1,25.2,106.2,23.5,106.2,20.1z"></path>
			<path class="st6" d="M113.6,27c-0.6-0.7-1-1.6-1-2.8V6.8l3.6-0.4V24c0,0.7,0.3,1,0.8,1c0.3,0,0.6,0,0.8-0.1l0.8,2.5     c-0.7,0.3-1.5,0.5-2.4,0.5C115.2,27.9,114.3,27.6,113.6,27z"></path>
			<path class="st6" d="M132.9,21.2h-9.3c0.1,1.4,0.5,2.5,1.1,3.1s1.5,0.9,2.5,0.9c0.7,0,1.3-0.1,1.8-0.3c0.6-0.2,1.2-0.5,1.8-1     l1.5,2c-1.6,1.3-3.5,2-5.5,2c-2.3,0-4-0.7-5.2-2.1c-1.2-1.4-1.8-3.3-1.8-5.7c0-1.5,0.3-2.9,0.8-4.1s1.3-2.1,2.3-2.8s2.2-1,3.5-1     c2.1,0,3.7,0.7,4.8,2c1.1,1.3,1.7,3.1,1.7,5.5C133,20,133,20.4,132.9,21.2z M129.4,18.7c0-2.6-1-3.9-2.9-3.9     c-0.9,0-1.6,0.3-2.1,1c-0.5,0.6-0.8,1.7-0.9,3.1h5.8V18.7z"></path>
			<path class="st6" d="M140.9,9.6c-0.3,0.3-0.5,0.8-0.5,1.6v1.6h3.6l-0.4,2.6h-3.2v12.2h-3.6V15.3h-2.4v-2.6h2.4v-1.6     c0-1.4,0.5-2.5,1.4-3.4c0.9-0.9,2.2-1.3,3.9-1.3c1.3,0,2.6,0.3,3.8,0.9l-1,2.4c-0.8-0.4-1.6-0.6-2.4-0.6     C141.7,9.1,141.2,9.3,140.9,9.6z"></path>
			<path class="st6" d="M156.7,14.4c1.2,1.4,1.8,3.3,1.8,5.7c0,1.5-0.3,2.9-0.8,4.1c-0.6,1.2-1.4,2.1-2.4,2.8c-1,0.7-2.3,1-3.7,1     c-2.2,0-3.9-0.7-5.1-2.1c-1.2-1.4-1.8-3.3-1.8-5.8c0-1.5,0.3-2.9,0.8-4.1s1.4-2.1,2.4-2.7s2.3-1,3.7-1     C153.8,12.3,155.5,13,156.7,14.4z M148.4,20.1c0,1.8,0.3,3,0.8,3.9c0.5,0.8,1.3,1.2,2.4,1.2c1.1,0,1.9-0.4,2.4-1.3     c0.5-0.8,0.8-2.1,0.8-3.9s-0.3-3-0.8-3.8c-0.5-0.8-1.3-1.2-2.4-1.2C149.5,15,148.4,16.7,148.4,20.1z"></path>
			<path class="st6" d="M172.1,13.5c0.7,0.8,1.1,1.9,1.1,3.3v10.7h-3.6V17.4c0-0.9-0.2-1.5-0.5-1.8s-0.8-0.5-1.4-0.5     c-0.6,0-1.2,0.2-1.7,0.6c-0.5,0.4-1,0.9-1.4,1.7v10.3h-3.6V12.7h3.1l0.3,1.9c1.2-1.6,2.7-2.4,4.5-2.4     C170.3,12.3,171.3,12.7,172.1,13.5z"></path>
			<path class="st6" d="M188.9,21.2h-9.3c0.1,1.4,0.5,2.5,1.1,3.1s1.5,0.9,2.5,0.9c0.7,0,1.3-0.1,1.8-0.3c0.6-0.2,1.2-0.5,1.8-1     l1.5,2c-1.6,1.3-3.5,2-5.5,2c-2.3,0-4-0.7-5.2-2.1c-1.2-1.4-1.8-3.3-1.8-5.7c0-1.5,0.3-2.9,0.8-4.1s1.3-2.1,2.3-2.8s2.2-1,3.5-1     c2.1,0,3.7,0.7,4.8,2c1.1,1.3,1.7,3.1,1.7,5.5C189,20,188.9,20.4,188.9,21.2z M185.4,18.7c0-2.6-1-3.9-2.9-3.9     c-0.9,0-1.6,0.3-2.1,1c-0.5,0.6-0.8,1.7-0.9,3.1h5.8V18.7z"></path>
		</g>
		<path class="st6" d="M20,0C9,0,0,9,0,20c0,11,9,20,20,20c3,0,5.8-0.7,8.4-1.9l-1.9-2.6c-2,0.8-4.2,1.3-6.5,1.3    c-9.3,0-16.9-7.5-16.9-16.8c0-9.3,7.5-16.9,16.9-16.9c9.3,0,16.7,7.5,16.8,16.9c0,2.1-0.4,4-1.8,5.9c-1.6,2.1-5,3.1-4.7,1.8    c0-0.3,0.2-0.8,0.2-1.2c0.1-0.3,0.1-0.6,0-0.9c-0.1-0.2-0.3-0.4-0.6-0.6c-0.7-0.3-1.7-0.8-3.1-1.5c-0.6-0.3-0.7-0.4-1.1-0.5    c-0.3-0.1-0.6-0.1-1,0c-0.6,0.2-1.8,1.3-2.2,1.5c-0.5,0.2-0.8,0.2-1.4,0c-0.4-0.1-0.5-0.3-0.9-0.6c-0.5-0.4-2.3-2.3-2.3-2.2    c0,0-1.9-1.9-2.3-2.4c-0.3-0.3-0.4-0.6-0.6-0.9c-0.2-0.6-0.2-0.9,0-1.4c0.2-0.4,1.1-1.3,1.3-1.9c0.1-0.4,0.1-0.6,0-0.9    c-0.1-0.3-0.2-0.6-0.5-1.1c-1.1-1.5-1.8-2.5-2.2-3.1c-0.2-0.3-0.6-0.7-1-0.8c-0.4,0-1,0.3-1.2,0.4c-0.4,0.2-0.9,0.5-1.4,1    c-0.3,0.3-0.5,0.9-0.6,1.2c-0.2,0.6-0.2,1-0.2,1.4c0,0.8,0.3,2.1,0.5,2.7c0.3,1,0.8,2.1,1.4,3c0.6,1.1,1.2,1.9,1.9,2.7    c0.7,0.8,2,2.2,2.4,2.6c0.4,0.4,1.9,1.8,2.7,2.4c0.8,0.7,1.7,1.3,2.6,1.8c1,0.5,1.8,0.9,3.2,1.5c2.8,1.1,6.9,1.5,9.8,0.4    c1.3-0.5,2.9-1.5,3.8-2.6c1.9-2.4,2.6-4.9,2.6-7.9C40,9,31,0,20,0z"></path>
	</g>
</g>
</svg>
