<svg xmlns="http://www.w3.org/2000/svg" height="800" width="1200" viewBox="-44.4 -18.9612 384.8 113.7672"><path d="M0 40.7517l10.3022-.9645c.636 3.458 1.8962 6.0081 3.7923 7.6385 1.9052 1.6185 4.4792 2.4248 7.7132 2.4248 3.4162 0 5.9962-.7316 7.749-2.168 1.732-1.4691 2.589-3.1443 2.589-5.0614 0-1.2453-.3673-2.3292-1.087-3.2012-.7315-.857-2.0036-1.6334-3.8132-2.2485-1.2512-.4778-4.082-1.2393-8.4926-2.359-5.6886-1.4006-9.684-3.1534-11.9565-5.2109-3.225-2.9264-4.8435-6.4918-4.8435-10.6664 0-2.6876.7436-5.2288 2.2844-7.546 1.511-2.353 3.7148-4.1418 6.5844-5.384 2.8608-1.1944 6.2859-1.8185 10.3679-1.8185 6.5964 0 11.5623 1.4602 14.9127 4.3627 3.3415 2.9563 5.0824 6.8352 5.2467 11.7026l-10.6665.3584c-.4718-2.6577-1.4154-4.6166-2.9264-5.817-1.4811-1.1915-3.7237-1.7887-6.692-1.7887-3.0786 0-5.4974.633-7.2293 1.923-1.1348.8302-1.6932 1.8963-1.6932 3.258 0 1.269.5196 2.3142 1.5767 3.207 1.3288 1.1527 4.5927 2.3262 9.7527 3.5326 5.172 1.2303 8.9823 2.5024 11.4488 3.8193 2.4725 1.3169 4.4165 3.1116 5.814 5.402 1.3856 2.2335 2.1082 5.0883 2.1082 8.4417 0 3.022-.848 5.8827-2.5232 8.5135-1.6753 2.6308-4.0522 4.6195-7.113 5.9125-3.0727 1.2572-6.892 1.929-11.4668 1.929-6.662 0-11.7922-1.5557-15.3576-4.6703C2.8219 51.1763.6928 46.6643 0 40.7517" fill="#a7a5a6"/><path d="M41.4932 19.6458h10.6963l9.1376 27.2006 8.9046-27.2006h10.4246L67.2575 56.4827l-2.4546 6.7218c-.8868 2.2425-1.723 3.9417-2.5232 5.1182-.8003 1.2004-1.723 2.168-2.7622 2.8876-1.06.7137-2.3411 1.29-3.8342 1.699-1.5289.4152-3.243.645-5.16.645-1.932 0-3.8402-.2298-5.7185-.645l-.8361-7.958c1.5677.3315 2.9921.4957 4.2552.4957 2.3292 0 4.0642-.6868 5.178-2.0574 1.1258-1.4095 1.9858-3.1892 2.58-5.3213zm74.2379 38.318H105.659V38.4584c0-4.109-.209-6.7576-.654-7.982-.442-1.2093-1.1257-2.153-2.1171-2.8278-.9735-.666-2.168-1.0033-3.5326-1.0033-1.7708 0-3.3415.4897-4.757 1.4542-1.4154.9526-2.368 2.2157-2.8875 3.7745-.5107 1.6005-.7794 4.506-.7794 8.7971v17.2927H80.88v-38.318h9.3107v5.6109c3.3505-4.2433 7.555-6.3396 12.6284-6.3396 2.2545 0 4.294.4121 6.1544 1.1826 1.8574.8301 3.2728 1.8275 4.2045 3.0906.9466 1.2512 1.6095 2.6666 1.9858 4.2343.3732 1.5618.5673 3.8551.5673 6.7965zm10.3682-19.0515c0 3.8252.8958 6.7486 2.7144 8.7314 1.8125 2.0455 4.0342 3.0638 6.6919 3.0638 2.6576 0 4.8823-1.0183 6.6919-3.0638 1.7797-1.9828 2.6756-4.939 2.6756-8.7792 0-3.7864-.8959-6.68-2.6756-8.6837-1.8096-2.0037-4.0343-3.0428-6.692-3.0428-2.6576 0-4.8793 1.0391-6.6918 3.0428-1.8186 2.0037-2.7144 4.9301-2.7144 8.7315m-10.3111-.5106c0-3.3983.839-6.6233 2.4934-9.7916 1.6543-3.1384 4.0044-5.5452 7.0472-7.2175 3.043-1.6632 6.4411-2.4725 10.1857-2.4725 5.805 0 10.544 1.8753 14.238 5.6378 3.7057 3.7656 5.566 8.5225 5.566 14.2588 0 5.7961-1.8752 10.5799-5.6139 14.3992-3.7326 3.7983-8.4507 5.7303-14.1214 5.7303-3.5057 0-6.8472-.8092-10.0423-2.3948-3.1862-1.5887-5.605-3.9119-7.2593-6.9906-1.6543-3.0458-2.4934-6.7695-2.4934-11.1591" fill="#a7a5a6"/><path d="M167.6785 0v49.4712c0 2.359.1732 3.9208.5046 4.6674.3464.7823.863 1.3587 1.5647 1.7498.7137.3912 2.0336.5943 3.9388.5943v1.4811h-18.2811v-1.4811c1.714 0 2.8786-.1762 3.5355-.5495.6032-.3673 1.093-.9257 1.4483-1.7528.3583-.8093.5226-2.377.5226-4.7092V15.713c0-4.2492-.0866-6.8472-.2688-7.8296-.1732-.9735-.4837-1.6245-.8868-1.9709-.4151-.3673-.9317-.5703-1.5618-.5703-.6808 0-1.5588.2508-2.6069.6659l-.6958-1.4483L165.8718 0zm22.9065 22.2676c-1.4452 0-2.8875.3732-4.3418 1.2512-1.4542.863-2.6367 2.3381-3.5355 4.4583-.8929 2.162-1.3438 4.8972-1.3438 8.2536 0 5.4258 1.096 10.0514 3.24 14.014 2.1679 3.8939 5.0077 5.8796 8.5313 5.8796 2.6577 0 4.8226-1.1108 6.5188-3.2548 1.723-2.162 2.583-5.8797 2.583-11.1741 0-6.6173-1.4274-11.7863-4.2792-15.5877-1.932-2.583-4.3896-3.8401-7.3727-3.8401m1.2512-2.7443c5.6706 0 10.2066 2.147 13.6406 6.4411 2.9085 3.658 4.3628 7.8625 4.3628 12.6104 0 3.3505-.7884 6.7308-2.398 10.135-1.6094 3.4161-3.8132 5.9991-6.644 7.731-2.819 1.741-5.9395 2.61-9.3944 2.61-5.6498 0-10.129-2.2426-13.4406-6.7069-2.801-3.7625-4.2075-8.0028-4.2075-12.712 0-3.428.8481-6.8054 2.5412-10.1677 1.717-3.4042 3.9477-5.8797 6.7308-7.537 2.774-1.5887 5.7095-2.4039 8.809-2.4039m33.2835 2.0575c-2.0037 0-3.658.836-5.0197 2.4277-1.3438 1.5886-2.0097 3.9745-2.0097 7.2772 0 4.2523.9138 7.549 2.7443 9.908 1.4124 1.7737 3.1772 2.6606 5.3243 2.6606 2.0484 0 3.7446-.7853 5.0525-2.3202 1.3199-1.5379 1.9738-3.9327 1.9738-7.2055 0-4.306-.9137-7.6445-2.7711-10.0633-1.3975-1.7588-3.1504-2.6845-5.2944-2.6845m-7.4325 36.383c-1.2422 1.3438-2.168 2.6368-2.813 3.8521-.645 1.1347-.9435 2.2486-.9435 3.219 0 1.3349.7704 2.4487 2.341 3.4222 2.7145 1.6573 6.6323 2.5203 11.7475 2.5203 4.8674 0 8.4478-.863 10.78-2.577 2.3291-1.6962 3.4758-3.5118 3.4758-5.4498 0-1.3766-.6928-2.377-2.0813-2.9741-1.4154-.6003-4.2045-.9467-8.406-1.0332-6.1096-.1822-10.8217-.5376-14.1005-.9795m.3345-13.6795c-2.2695-1.1556-3.9955-2.6755-5.2258-4.6673-1.2034-2.0156-1.8126-4.2015-1.8126-6.5993 0-3.6969 1.3707-6.886 4.1418-9.502 2.783-2.6546 6.3455-3.9954 10.6784-3.9954 3.5386 0 6.6113.8362 9.2092 2.58h7.8894c1.1736 0 1.8454.0389 2.0485.1046.1762.0896.2956.212.3942.3464.1552.2538.2478.6868.2478 1.302 0 .7106-.0746 1.2332-.209 1.481-.0836.1374-.221.2628-.433.3166-.203.0806-.875.1164-2.0604.1164h-4.8615c1.5409 1.962 2.3023 4.4703 2.3023 7.522 0 3.464-1.3467 6.4561-3.9894 8.9137-2.6577 2.4755-6.2172 3.7267-10.6635 3.7267-1.8484 0-3.7297-.2717-5.6617-.878-1.1347 1.0691-1.9081 1.959-2.2904 2.7324-.415.7943-.6181 1.4393-.6181 1.9619 0 .4986.221.9257.6838 1.3825.433.421 1.3199.7406 2.6189.9168.7405.1403 2.6576.2448 5.6796.3314 5.5721.1762 9.1943.3882 10.8307.666 2.5233.3493 4.5449 1.299 6.0469 2.795 1.502 1.508 2.2515 3.3504 2.2515 5.5512 0 3.025-1.4423 5.9066-4.309 8.5702-4.2014 3.9208-9.7079 5.8857-16.4953 5.8857-5.2168 0-9.6273-1.1497-13.2256-3.5087-2.0336-1.3587-3.034-2.7533-3.034-4.2284 0-.6241.1464-1.29.4241-1.941.451-1.0213 1.3856-2.359 2.789-4.1537.1852-.2568 1.5528-1.711 4.0642-4.3747-1.3975-.878-2.3949-1.6185-2.9623-2.3053-.5823-.6659-.8779-1.4333-.8779-2.2665 0-.9675.3733-2.0753 1.1347-3.3444.7705-1.299 2.5412-3.1265 5.2945-5.4378m28.7265-23.674h17.454v1.493h-.8451c-1.2333 0-2.147.2867-2.7622.7914-.6091.5464-.9048 1.2034-.9048 1.9708 0 1.081.433 2.5352 1.3468 4.4016l9.0987 18.8783 8.3283-20.6252c.46-1.1347.6928-2.2217.6928-3.3475 0-.4837-.1164-.839-.2866-1.078-.224-.2896-.5614-.5464-1.0243-.7047-.4539-.1821-1.278-.2867-2.4337-.2867v-1.493h12.073v1.493c-1.0034.1046-1.7798.3345-2.3203.654-.5524.3374-1.1467.9317-1.7917 1.8066-.2508.3942-.7345 1.4184-1.3975 3.1325L266.854 64.9036c-1.4752 3.6281-3.4012 6.3395-5.7961 8.188-2.389 1.8633-4.6912 2.7532-6.904 2.7532-1.6095 0-2.9264-.43-3.9775-1.3796-1.0302-.9108-1.5468-1.965-1.5468-3.1743 0-1.1288.3703-2.0097 1.1228-2.7174.7495-.7196 1.8006-1.0391 3.1026-1.0391.9048 0 2.147.2926 3.6968.869 1.087.3732 1.7797.612 2.0604.612.8182 0 1.6932-.4419 2.6756-1.278.9615-.8301 1.935-2.4546 2.9085-4.8465l2.6368-6.4978-13.4317-28.0696c-.409-.851-1.066-1.8903-1.9529-3.1504-.6838-.9406-1.2422-1.5856-1.6752-1.935-.6271-.4061-1.6394-.8003-3.025-1.1348zm41.6506-6.6323h2.1052c.445 0 .8033-.0268 1.0511-.1552.2598-.0537.445-.2389.5764-.433.1463-.215.206-.445.206-.6838 0-.3374-.1254-.6241-.3882-.857-.2478-.224-.654-.3375-1.1915-.3375h-2.359zm-.9824 4.1598v-7.4713h3.2817c.666 0 1.1646.0836 1.523.2389.3583.1224.6031.3553.8182.6748.212.3643.3045.7406.3045 1.1258 0 .5494-.1612.9944-.5196 1.3408-.3254.3732-.854.6151-1.5677.7107.2718.1254.4629.2598.5883.3673.2867.2597.5584.5852.8092.9704l1.299 2.0426h-1.2243l-.9914-1.5439c-.2867-.421-.5285-.7883-.7137-1.0182-.2-.2539-.3434-.4032-.4987-.5316-.1373-.0866-.2866-.1224-.442-.1702-.1134-.0328-.3075-.0507-.5613-.0507h-1.1228v3.3146z" fill="#231f20"/><path d="M295.7327 14.1214c0 2.9832-2.4277 5.4378-5.4019 5.4378-2.995 0-5.4198-2.4546-5.4198-5.4378 0-3.004 2.4247-5.4109 5.4198-5.4109 2.9742 0 5.402 2.4069 5.402 5.411z" fill="none" stroke="#231f20" stroke-width=".5345"/></svg>