<?xml version="1.0" encoding="UTF-8" ?>
<!DOCTYPE svg PUBLIC "-//W3C//DTD SVG 1.1//EN" "http://www.w3.org/Graphics/SVG/1.1/DTD/svg11.dtd">
<svg width="800pt" height="101pt" viewBox="0 0 800 101" version="1.1" xmlns="http://www.w3.org/2000/svg">
  <g>
    <path fill="#231f20" opacity="1.00" d=" M 289.25 12.17 C 299.90 2.66 314.89 -0.91 328.88 0.70 C 341.53 1.85 353.79 8.26 361.21 18.69 C 355.72 23.92 350.33 29.25 344.86 34.50 C 341.14 30.02 336.60 25.95 330.92 24.26 C 322.21 21.59 311.90 23.85 305.70 30.71 C 299.80 37.22 297.93 46.58 299.04 55.12 C 299.86 61.84 302.90 68.51 308.32 72.76 C 316.15 79.01 327.95 79.64 336.43 74.29 C 339.76 72.32 342.28 69.33 344.91 66.55 C 350.27 71.97 355.97 77.05 361.21 82.59 C 344.09 105.66 306.24 106.65 286.57 86.40 C 267.32 66.53 268.17 30.44 289.25 12.17 Z"/>
    <path fill="#231f20" opacity="1.00" d=" M 635.20 1.22 C 646.31 1.33 657.42 1.14 668.53 1.32 C 684.72 17.81 701.01 34.18 717.35 50.52 C 701.00 66.84 684.70 83.21 668.32 99.52 C 657.26 99.48 646.19 99.51 635.13 99.50 C 618.79 83.16 602.43 66.85 586.13 50.48 C 602.53 34.10 618.68 17.47 635.20 1.22 M 643.15 7.00 C 645.99 9.90 648.96 12.68 651.61 15.77 C 654.52 12.85 657.45 9.95 660.35 7.01 C 654.61 6.99 648.88 7.00 643.15 7.00 M 596.89 47.75 C 604.54 47.75 612.18 47.74 619.83 47.76 C 629.14 38.39 638.65 29.21 647.77 19.64 C 643.93 15.80 640.10 11.96 636.25 8.14 C 623.32 21.52 609.99 34.53 596.89 47.75 M 655.64 19.77 C 664.91 29.09 674.27 38.31 683.48 47.69 C 691.10 47.83 698.72 47.71 706.34 47.75 C 693.35 34.51 680.28 21.35 667.14 8.26 C 663.29 12.09 659.44 15.90 655.64 19.77 M 651.62 23.64 C 642.87 32.66 634.07 41.65 625.14 50.48 C 634.02 59.37 642.83 68.33 651.82 77.10 C 660.61 68.18 669.51 59.39 678.35 50.52 C 669.47 41.53 660.44 32.68 651.62 23.64 M 596.89 53.25 C 609.99 66.39 623.12 79.50 636.25 92.61 C 640.09 88.79 643.90 84.95 647.74 81.14 C 638.44 71.83 629.16 62.50 619.81 53.23 C 612.17 53.27 604.53 53.24 596.89 53.25 M 683.49 53.31 C 674.31 62.65 664.98 71.83 655.76 81.12 C 659.54 84.92 663.32 88.72 667.13 92.49 C 680.19 79.40 693.30 66.36 706.34 53.25 C 698.72 53.29 691.10 53.17 683.49 53.31 M 643.15 93.74 C 648.88 93.76 654.61 93.75 660.34 93.75 C 657.50 90.85 654.62 88.00 651.75 85.14 C 648.87 87.99 645.99 90.85 643.15 93.74 Z"/>
    <path fill="#231f20" opacity="1.00" d=" M 0.00 2.25 C 16.00 2.27 32.01 2.20 48.01 2.28 C 58.12 2.55 69.32 4.71 76.29 12.70 C 85.35 23.33 82.11 41.64 69.83 48.44 C 72.17 49.57 74.54 50.72 76.60 52.33 C 88.55 61.34 89.13 81.98 77.16 91.21 C 69.19 97.29 58.77 98.73 49.01 98.76 C 32.67 98.74 16.34 98.76 0.00 98.75 L 0.00 2.25 M 25.49 22.27 C 25.51 28.35 25.49 34.42 25.51 40.49 C 31.34 40.50 37.17 40.51 43.01 40.51 C 46.64 40.48 50.58 39.88 53.32 37.28 C 56.48 33.76 56.32 27.43 52.35 24.57 C 49.66 22.70 46.26 22.22 43.05 22.23 C 37.20 22.27 31.34 22.22 25.49 22.27 M 25.51 59.51 C 25.47 65.89 25.56 72.28 25.45 78.67 C 32.65 78.85 39.86 78.69 47.06 78.77 C 50.52 78.80 54.26 78.30 57.04 76.05 C 60.29 73.20 60.58 67.99 58.64 64.32 C 56.25 60.38 51.17 59.73 46.97 59.54 C 39.82 59.44 32.66 59.53 25.51 59.51 Z"/>
    <path fill="#231f20" opacity="1.00" d=" M 98.76 2.25 C 107.34 2.25 115.91 2.26 124.48 2.24 C 124.51 27.15 124.51 52.06 124.48 76.97 C 138.74 77.05 152.99 76.97 167.25 77.01 C 167.23 84.26 167.30 91.51 167.21 98.77 C 144.39 98.73 121.58 98.76 98.76 98.75 C 98.74 66.58 98.74 34.41 98.76 2.25 Z"/>
    <path fill="#231f20" opacity="1.00" d=" M 212.14 2.23 C 220.57 2.31 228.99 2.16 237.41 2.30 C 250.59 34.49 263.99 66.59 277.21 98.76 C 268.28 98.73 259.35 98.80 250.42 98.72 C 248.15 92.51 245.64 86.39 243.52 80.12 C 230.92 79.84 218.30 80.08 205.70 80.00 C 203.36 86.24 200.96 92.47 198.65 98.72 C 189.89 98.79 181.13 98.72 172.36 98.76 C 185.58 66.57 198.84 34.38 212.14 2.23 M 224.51 29.57 C 220.72 39.61 217.00 49.69 213.17 59.72 C 220.72 59.77 228.27 59.77 235.82 59.72 C 232.06 49.67 228.31 39.61 224.51 29.57 Z"/>
    <path fill="#231f20" opacity="1.00" d=" M 371.01 2.24 C 379.50 2.25 387.99 2.25 396.49 2.24 C 396.51 15.45 396.52 28.66 396.48 41.87 C 406.95 29.86 417.39 17.83 427.83 5.80 C 428.92 4.63 429.79 3.18 431.16 2.31 C 440.54 2.16 449.93 2.28 459.31 2.27 C 447.11 16.59 434.74 30.76 422.55 45.09 C 435.44 62.96 448.35 80.83 461.18 98.76 C 451.21 98.74 441.25 98.76 431.29 98.75 C 422.78 87.20 414.27 75.63 405.80 64.05 C 403.23 66.76 400.87 69.65 398.36 72.40 C 397.48 73.44 396.24 74.45 396.51 75.99 C 396.52 83.52 396.40 91.06 396.60 98.60 C 388.08 98.95 379.54 98.65 371.01 98.76 C 370.99 66.59 370.99 34.41 371.01 2.24 Z"/>
  </g>
  <g>
    <path fill="#ed1c24" opacity="1.00" d=" M 499.25 2.25 C 515.17 2.26 531.09 2.23 547.01 2.26 C 556.28 2.58 566.23 4.26 573.39 10.63 C 583.16 19.37 582.78 36.50 573.17 45.21 C 571.82 46.41 570.33 47.44 568.88 48.49 C 575.83 51.18 581.76 56.84 583.76 64.14 C 586.04 72.68 584.95 82.89 578.35 89.31 C 571.18 96.31 560.72 98.31 551.05 98.73 C 533.78 98.78 516.52 98.74 499.25 98.75 C 499.25 66.58 499.24 34.42 499.25 2.25 M 524.48 22.29 C 524.53 28.36 524.48 34.43 524.51 40.50 C 530.33 40.50 536.15 40.50 541.98 40.51 C 545.15 40.44 548.55 40.08 551.23 38.22 C 554.83 35.80 555.48 30.40 553.41 26.79 C 551.27 23.31 546.89 22.33 543.08 22.25 C 536.87 22.25 530.67 22.22 524.48 22.29 M 524.50 59.50 C 524.50 65.92 524.49 72.34 524.51 78.75 C 532.02 78.74 539.54 78.75 547.06 78.76 C 549.99 78.74 553.08 78.22 555.52 76.49 C 560.24 73.10 560.15 64.90 555.18 61.78 C 552.18 59.88 548.49 59.61 545.04 59.51 C 538.19 59.48 531.35 59.51 524.50 59.50 Z"/>
    <path fill="#ed1c24" opacity="1.00" d=" M 701.06 2.30 C 710.70 2.16 720.34 2.33 729.99 2.20 C 736.04 11.37 741.93 20.64 747.93 29.84 C 753.80 20.66 759.62 11.44 765.54 2.27 C 774.82 2.22 784.11 2.26 793.40 2.25 C 782.94 17.79 772.47 33.31 762.01 48.85 C 773.08 65.52 784.30 82.09 795.39 98.76 C 785.49 98.73 775.60 98.79 765.70 98.73 C 759.55 88.88 753.53 78.95 747.22 69.21 C 741.04 78.99 735.34 89.19 728.84 98.69 C 719.13 98.85 709.41 98.69 699.70 98.76 C 710.52 82.42 721.60 66.25 732.45 49.92 C 721.92 34.09 711.56 18.15 701.06 2.30 Z"/>
  </g>
</svg>
