<?xml version="1.0" encoding="UTF-8"?>
<!DOCTYPE svg PUBLIC "-//W3C//DTD SVG 1.1//EN" "http://www.w3.org/Graphics/SVG/1.1/DTD/svg11.dtd">
<svg xmlns="http://www.w3.org/2000/svg" version="1.1" width="1293px" height="813px" style="shape-rendering:geometricPrecision; text-rendering:geometricPrecision; image-rendering:optimizeQuality; fill-rule:evenodd; clip-rule:evenodd" xmlns:xlink="http://www.w3.org/1999/xlink">
<g><path style="opacity:1" fill="#00b335" d="M 76.5,168.5 C 457.5,168.333 838.5,168.5 1219.5,169C 1245.2,172.037 1260.7,186.204 1266,211.5C 1266.67,337.833 1266.67,464.167 1266,590.5C 1261.73,612.769 1248.57,626.602 1226.5,632C 840.833,632.667 455.167,632.667 69.5,632C 47.4712,626.637 34.3045,612.804 30,590.5C 29.3333,464.167 29.3333,337.833 30,211.5C 35.4695,186.193 50.9695,171.86 76.5,168.5 Z"/></g>
<g><path style="opacity:1" fill="#fefffe" d="M 401.5,306.5 C 451.477,304.335 483.977,327.002 499,374.5C 501.295,384.725 501.961,395.058 501,405.5C 498.928,412.573 494.428,417.406 487.5,420C 446.163,420.167 404.829,420.667 363.5,421.5C 367.92,444.413 381.92,457.913 405.5,462C 417.504,463.484 429.17,462.151 440.5,458C 451.352,451.742 461.686,444.742 471.5,437C 480.704,434.187 487.538,437.021 492,445.5C 493.816,453.713 492.149,461.046 487,467.5C 462.629,491.559 433.462,500.392 399.5,494C 356.078,485.68 331.912,459.513 327,415.5C 322.493,377.327 334.993,346.161 364.5,322C 375.901,314.373 388.234,309.207 401.5,306.5 Z"/></g>
<g><path style="opacity:1" fill="#fefffe" d="M 594.5,306.5 C 646.564,304.275 679.397,328.275 693,378.5C 694.483,387.787 694.816,397.121 694,406.5C 691.833,413.333 687.333,417.833 680.5,420C 639.262,420.17 598.096,420.67 557,421.5C 561.132,444.629 574.965,458.129 598.5,462C 613.773,464.177 628.106,461.511 641.5,454C 648.632,447.601 656.299,441.935 664.5,437C 676.935,434.053 684.268,438.886 686.5,451.5C 685.986,457.549 683.82,462.883 680,467.5C 657.802,489.789 630.969,498.956 599.5,495C 560.3,490.83 534.8,469.997 523,432.5C 514.336,398.413 520.003,367.079 540,338.5C 554.377,321.233 572.543,310.567 594.5,306.5 Z"/></g>
<g><path style="opacity:1" fill="#fefffe" d="M 140.5,307.5 C 146.726,307.53 151.893,309.864 156,314.5C 177.94,360.713 199.607,407.046 221,453.5C 226.14,457.462 229.806,456.129 232,449.5C 252.667,404.833 273.333,360.167 294,315.5C 304.362,304.86 314.362,305.194 324,316.5C 326.764,322.374 327.098,328.374 325,334.5C 301.728,381.377 278.728,428.377 256,475.5C 246.627,489.961 233.461,495.461 216.5,492C 207.997,489.492 201.164,484.659 196,477.5C 172.061,429.289 148.395,380.956 125,332.5C 122.64,319.178 127.807,310.845 140.5,307.5 Z"/></g>
<g><path style="opacity:1" fill="#fefffe" d="M 799.5,307.5 C 813.249,307.125 824.083,312.458 832,323.5C 856,370.833 880,418.167 904,465.5C 908.724,480.743 903.391,490.076 888,493.5C 881.468,492.952 876.468,489.952 873,484.5C 851.193,438.747 829.193,393.08 807,347.5C 804.095,343.673 801.095,343.673 798,347.5C 787.228,368.71 776.728,390.044 766.5,411.5C 785.223,412.038 803.889,412.871 822.5,414C 832.529,421.718 834.029,430.885 827,441.5C 824.531,443.652 821.698,445.152 818.5,446C 795.833,446.333 773.167,446.667 750.5,447C 743.616,459.935 737.116,473.102 731,486.5C 721.645,495.676 712.312,495.676 703,486.5C 699.194,479.829 698.527,472.829 701,465.5C 724.667,418.833 748.333,372.167 772,325.5C 778.512,315.334 787.679,309.334 799.5,307.5 Z"/></g>
<g><path style="opacity:1" fill="#fefffe" d="M 953.5,307.5 C 965.877,307.77 975.377,313.104 982,323.5C 1003.17,367.167 1024.33,410.833 1045.5,454.5C 1046.24,455.287 1047.08,455.953 1048,456.5C 1070.98,410.531 1093.98,364.531 1117,318.5C 1131.24,305.46 1146.07,304.626 1161.5,316C 1166.38,321.253 1169.54,327.42 1171,334.5C 1171.67,382.833 1171.67,431.167 1171,479.5C 1167.31,490.595 1159.81,494.762 1148.5,492C 1142.45,489.099 1138.95,484.265 1138,477.5C 1138.46,436.006 1139.29,394.506 1140.5,353C 1140.17,350.5 1139.83,348 1139.5,345.5C 1117.35,389.802 1095.18,434.136 1073,478.5C 1063.17,492.445 1050.33,496.278 1034.5,490C 1029.67,486.5 1025.5,482.333 1022,477.5C 1000.27,433.043 978.272,388.71 956,344.5C 956.518,389.497 956.852,434.497 957,479.5C 954.788,487.71 949.455,492.377 941,493.5C 930.679,492.512 925.012,486.845 924,476.5C 923.333,430.833 923.333,385.167 924,339.5C 925.798,321.209 935.632,310.542 953.5,307.5 Z"/></g>
<g><path style="opacity:1" fill="#00b335" d="M 404.5,337.5 C 439.088,335.925 459.754,352.092 466.5,386C 465.833,386.667 465.167,387.333 464.5,388C 431.167,388.667 397.833,388.667 364.5,388C 363.643,387.311 362.977,386.478 362.5,385.5C 366.35,360.382 380.35,344.382 404.5,337.5 Z"/></g>
<g><path style="opacity:1" fill="#00b335" d="M 597.5,337.5 C 624.435,334.544 643.602,345.211 655,369.5C 657.143,375.068 658.477,380.734 659,386.5C 658.5,387 658,387.5 657.5,388C 624.167,388.667 590.833,388.667 557.5,388C 556.833,387.333 556.167,386.667 555.5,386C 559.685,361.02 573.685,344.853 597.5,337.5 Z"/></g>
</svg>
