<?xml version="1.0" encoding="utf-8"?>
<!-- Generator: Adobe Illustrator 27.5.0, SVG Export Plug-In . SVG Version: 6.00 Build 0)  -->
<svg version="1.1" id="Ebene_1" xmlns="http://www.w3.org/2000/svg" xmlns:xlink="http://www.w3.org/1999/xlink" x="0px" y="0px"
	 viewBox="0 0 257.2 102" style="enable-background:new 0 0 257.2 102;" xml:space="preserve">
<style type="text/css">
	.st0{fill:#0099FF;}
</style>
<g>
	<g>
		<g>
			<g>
				<path class="st0" d="M20.4,71.3c0,2.8-1,5.2-3,7.2c-2,2-4.4,3-7.2,3c-2.8,0-5.2-1-7.2-3c-2-2-3-4.4-3-7.2V38.1
					c0-2.8,1-5.2,3-7.2c2-2,4.4-3,7.2-3c2.8,0,5.2,1,7.2,3c2,2,3,4.4,3,7.2V71.3L20.4,71.3z M20.4,10.2c0,2.8-1,5.2-3,7.2
					c-2,2-4.4,3-7.2,3c-2.8,0-5.2-1-7.2-3c-2-2-3-4.4-3-7.2C0,7.4,1,5,3,3c2-2,4.4-3,7.2-3c2.8,0,5.2,1,7.2,3
					C19.4,5,20.4,7.4,20.4,10.2L20.4,10.2z"/>
			</g>
			<g>
				<path class="st0" d="M127.9,51c0,8.4-3,15.6-8.9,21.6c-6,6-13.2,8.9-21.6,8.9c-7.7,0-14.5-2.6-20.3-7.8
					c-5.8,5.2-12.5,7.8-20.2,7.8c-8.4,0-15.6-3-21.6-8.9c-6-6-8.9-13.2-8.9-21.6V20.7c0-2.9,1-5.3,3-7.3c2-2,4.4-2.9,7.2-2.9
					c2.8,0,5.2,1,7.2,2.9c2,2,3,4.4,3,7.3V51c0,2.8,1,5.2,3,7.1c2,2,4.4,2.9,7.2,2.9c2.7,0,5.1-1,7.1-2.9c2-2,3-4.3,3-7.1V20.8
					c0-2.8,1-5.2,3-7.3c2-2,4.4-3.1,7.3-3.1c2.8,0,5.2,1,7.2,3c2,2,3,4.4,3,7.2V51c0,2.8,1,5.2,2.9,7.1c2,2,4.3,2.9,7,2.9
					c2.8,0,5.2-1,7.1-2.9c2-2,2.9-4.3,2.9-7.1V20.7c0-2.8,1-5.2,3-7.2c2-2,4.4-3,7.2-3c2.8,0,5.2,1,7.2,3c2,2,3,4.4,3,7.2V51
					L127.9,51z"/>
			</g>
			<g>
				<path class="st0" d="M257.2,52.8c0,6.5-1.9,12.4-5.6,17.6c-3.7,5.3-8.7,9-14.8,11.1v10.2c0,2.8-1,5.2-3,7.2c-2,2-4.3,3-7.1,3
					c-2.8,0-5.1-1-7.1-3c-2-2-3-4.4-3-7.2V81.6c-6.1-2.2-11.1-5.9-14.8-11.1c-3.7-5.3-5.6-11.1-5.6-17.6V30.7c0-2.8,1-5.2,3-7.2
					c2-2,4.4-3,7.2-3s5.2,1,7.2,3c2,2,3,4.4,3,7.2v22.2c0,2.8,1,5.2,2.9,7.2c2,2,4.3,3,7.1,3c2.7,0,5.1-1,7-3c2-2,2.9-4.4,2.9-7.2
					V30.7c0-2.8,1-5.2,3-7.2c2-2,4.4-3,7.2-3c2.9,0,5.3,1,7.3,3c2,2,2.9,4.4,2.9,7.2V52.8L257.2,52.8z"/>
			</g>
		</g>
	</g>
	<g>
		<g>
			<g>
				<path class="st0" d="M191.9,50c-0.4-16.4-13.8-29.5-30.3-29.5c-16.8,0-30.3,13.6-30.3,30.3c0,0.5,0,1,0,1.5c0,0.5,0.1,1,0.1,1.5
					c1.3,15.6,12.7,27.8,26.6,27.8c5.7,0,10.9-2,15.3-5.5c0.5,0.9,1.1,1.8,1.9,2.6c2,2,4.3,3,7.1,3s5.1-1,7.1-3c2-2,2.6-4.4,2.6-7.2
					L191.9,50z M173.5,52.6c-0.8,5.7-5.6,10-11.4,10c-6.4,0-11.5-5.2-11.5-11.6c0-6.4,5.2-11.6,11.5-11.6c6,0,11,4.7,11.5,10.6v0
					c0,0.3,0.1,0.7,0.1,1C173.6,51.6,173.5,52.1,173.5,52.6z"/>
			</g>
		</g>
	</g>
</g>
</svg>
